<svg id="레이어_1" data-name="레이어 1" xmlns="http://www.w3.org/2000/svg" viewBox="0 0 20 20"><defs><style>.cls-1{fill:#2e2f2f;}</style></defs><path class="cls-1" d="M16.8,0H2A1.71,1.71,0,0,0,.28,1.71V16.52A1.71,1.71,0,0,0,2,18.22H16.8a1.71,1.71,0,0,0,1.71-1.7V1.71A1.71,1.71,0,0,0,16.8,0ZM8,1.63h7.65a.71.71,0,1,1,0,1.41H8A.71.71,0,0,1,8,1.63ZM5.3,1.53a.81.81,0,1,1-.8.8A.8.8,0,0,1,5.3,1.53Zm-2,0a.81.81,0,1,1,0,1.61.81.81,0,1,1,0-1.61Zm14,14.78a.94.94,0,0,1-.94.94H2.47a.94.94,0,0,1-.94-.94V5.1a.94.94,0,0,1,.94-.93H16.32a.94.94,0,0,1,.94.93Z"/><rect class="cls-1" x="4.07" y="6.54" width="9.45" height="1.13" rx="0.56"/><rect class="cls-1" x="4.07" y="9.08" width="6.86" height="1.13" rx="0.56"/><rect class="cls-1" x="4.07" y="11.63" width="4.08" height="1.13" rx="0.56"/><path class="cls-1" d="M19.62,10.78c.25-.29-.07-.83-.07-.83l-1-.84-1-.85S17,8,16.71,8.33L15.59,9.67l2.91,2.45Z"/><path class="cls-1" d="M13.31,18.3l4.59-5.46L15,10.39,10.4,15.85l-.49,2,1.5,1.26Z"/><polygon class="cls-1" points="9.4 20 11.13 19.25 9.84 18.16 9.4 20"/></svg>