<svg id="레이어_1" data-name="레이어 1" xmlns="http://www.w3.org/2000/svg" viewBox="0 0 20 20"><defs><style>.cls-1{fill:#2e2f2f;}</style></defs><path class="cls-1" d="M18.84,17.37l-.7-.71L19.76,15a.83.83,0,1,0-1.18-1.18L17,15.48l-.31-.3,1.77-1.77a1.67,1.67,0,1,0-2.36-2.36l-1.77,1.77L7.18,5.71,9,3.94A1.67,1.67,0,0,0,6.59,1.58L4.82,3.35,4.52,3,6.14,1.42a.85.85,0,0,0,0-1.18A.85.85,0,0,0,5,.24L3.34,1.86l-.71-.7L1.16,2.63l.7.71L.24,5a.85.85,0,0,0,0,1.18.85.85,0,0,0,1.18,0L3,4.52l.31.3L1.58,6.59A1.67,1.67,0,0,0,3.94,9L5.71,7.18l7.11,7.11-1.77,1.77a1.67,1.67,0,1,0,2.36,2.36l1.77-1.77.3.31-1.62,1.62A.83.83,0,1,0,15,19.76l1.62-1.62.71.7Z"/></svg>